REM MD5 e255a636644b25383ec33a5f5f5f7199
FILE "Kids Demo 01 (Europe) (En,Fr,De,Es,It).bin" BINARY
  TRACK 01 MODE2/2352
    INDEX 01 00:00:00
  TRACK 02 AUDIO
    INDEX 00 15:42:20
    INDEX 01 15:44:20
  TRACK 03 AUDIO
    INDEX 00 16:23:00
    INDEX 01 16:25:00
  TRACK 04 AUDIO
    INDEX 00 17:35:16
    INDEX 01 17:37:16
  TRACK 05 AUDIO
    INDEX 00 17:41:58
    INDEX 01 17:43:58
REM LEADOUT 20:45:15
